HIERARCHY
ROOT ui
{
	 OFFSET 0 0 0
	 CHANNELS 3 XPosition YPosition Z Position
	 EndSite
	 {
	 OFFSET 0 -1 0
	 }
}
ROOT li
{
	 OFFSET 0 0 0
	 CHANNELS 3 XPosition YPosition Z Position
	 EndSite
	 {
	 OFFSET 0 -1 0
	 }
}
ROOT ul
{
	 OFFSET 0 0 0
	 CHANNELS 3 XPosition YPosition Z Position
	 EndSite
	 {
	 OFFSET 0 -1 0
	 }
}
ROOT ll
{
	 OFFSET 0 0 0
	 CHANNELS 3 XPosition YPosition Z Position
	 EndSite
	 {
	 OFFSET 0 -1 0
	 }
}
ROOT tt
{
	 OFFSET 0 0 0
	 CHANNELS 3 XPosition YPosition Z Position
	 EndSite
	 {
	 OFFSET 0 -1 0
	 }
}
ROOT tb
{
	 OFFSET 0 0 0
	 CHANNELS 3 XPosition YPosition Z Position
	 EndSite
	 {
	 OFFSET 0 -1 0
	 }
}
ROOT td
{
	 OFFSET 0 0 0
	 CHANNELS 3 XPosition YPosition Z Position
	 EndSite
	 {
	 OFFSET 0 -1 0
	 }
}
ROOT v
{
	 OFFSET 0 0 0
	 CHANNELS 3 XPosition YPosition Z Position
	 EndSite
	 {
	 OFFSET 0 -1 0
	 }
}
ROOT bn
{
	 OFFSET 0 0 0
	 CHANNELS 3 XPosition YPosition Z Position
	 EndSite
	 {
	 OFFSET 0 -1 0
	 }
}
MOTION
Frames: 32
Frame Time: 0.002
-0.0034577829837799073	-0.002349932909011841	0		0.4721500244140625	-2.371299560546875	0		-0.9728082885742187	0.12134553527832032	0		-0.5117355041503906	-2.285402587890625	0		1.7366937255859376	-0.4289560241699219	0		3.29223974609375	-0.1178827896118164	0		4.4674990234375	-0.24948561096191407	0		6.0398173828125	0.4703916015625	0		0.0107357177734375	5.9620439453125	0		
-0.003132093906402588	-0.0024999020099639893	0		0.4724678955078125	-2.371451171875	0		-0.972482177734375	0.12119876861572265	0		-0.5746934814453125	-2.304659423828125	0		1.7468475341796874	-0.4412517395019531	0		3.287664306640625	-0.1109737548828125	0		4.4398125	-0.2502549133300781	0		6.0362578125	0.47827734375	0		0.011081110000610352	5.96189404296875	0		
-0.0028087060451507566	-0.002645761966705322	0		0.45878842163085937	-2.371400146484375	0		-0.9621737060546875	0.11991352844238282	0		-0.5644881591796875	-2.31294482421875	0		1.757338623046875	-0.42954315185546876	0		3.322758056640625	-0.1276181411743164	0		4.43833349609375	-0.23638188171386718	0		6.04558154296875	0.47799359130859376	0		0.029526351928710937	5.9694931640625	0		
0.0056106638908386235	0.004100690841674805	0		0.49113433837890624	-2.3699921875	0		-0.9627393188476563	0.12778717041015625	0		-0.556309326171875	-2.323196533203125	0		1.747830322265625	-0.4175433654785156	0		3.31244775390625	-0.10160594940185547	0		4.45573779296875	-0.23076332092285157	0		6.04590283203125	0.4778525085449219	0		0.027877315521240235	5.97138134765625	0		
0.0018741919994354247	2.5738999247550965E-5	0		0.47850091552734375	-2.36693994140625	0		-0.9774607543945313	0.12486608123779297	0		-0.494232666015625	-2.341202880859375	0		1.73205322265625	-0.4244461669921875	0		3.28454443359375	-0.11733621978759766	0		4.4519736328125	-0.23683186340332033	0		6.03722265625	0.47785617065429686	0		0.012048992156982422	5.9614765625	0		
0.0021920130252838133	-9.617599844932556E-5	0		0.4767976379394531	-2.3690322265625	0		-0.9771432495117187	0.12474129486083985	0		-0.5789983520507812	-2.34712548828125	0		1.7244013671875	-0.42245025634765626	0		3.30493115234375	-0.11273133850097657	0		4.4522919921875	-0.2369407196044922	0		6.0375390625	0.477751953125	0		0.012349321365356445	5.9613544921875	0		
-0.0015345829725265502	-0.0031497070789337158	0		0.4771234130859375	-2.369140380859375	0		-0.9768284912109375	0.12462670135498047	0		-0.5429725952148438	-2.368744384765625	0		1.7206624755859374	-0.4264961242675781	0		3.31617529296875	-0.11798181915283203	0		4.4526083984375	-0.2370314178466797	0		6.0378525390625	0.47766824340820313	0		0.012638429641723632	5.961244140625	0		
0.002819175958633423	-3.0324000120162965E-4	0		0.43243936157226565	-2.369599365234375	0		-1.048453857421875	0.12953948974609375	0		-0.5788550415039062	-2.3833349609375	0		1.7250328369140624	-0.42263973999023435	0		3.305855712890625	-0.09190674591064453	0		4.44810546875	-0.2240330810546875	0		6.04227392578125	0.4855493469238281	0		0.028069259643554688	5.97193505859375	0		
0.0022390899658203127	0.007628832817077637	0		0.4818431396484375	-2.364369140625	0		-0.9711553344726562	0.1283650665283203	0		-0.5236350708007812	-2.391195068359375	0		1.71451318359375	-0.4105546875	0		3.311894775390625	-0.11104696655273437	0		4.46141259765625	-0.22426568603515626	0		6.04670361328125	0.49445419311523436	0		0.013179798126220704	5.96106640625	0		
0.003426738977432251	-4.4832998514175417E-4	0		0.47809365844726565	-2.3693720703125	0		-0.986769775390625	0.13451780700683594	0		-0.5415661010742188	-2.409008056640625	0		1.7117611083984374	-0.41456137084960937	0		3.337447509765625	-0.09343685150146484	0		4.46171533203125	-0.22429176330566405	0		6.04287353515625	0.485498779296875	0		0.013429821968078614	5.96100244140625	0		
0.03071539306640625	-8.738009929656983E-4	0		0.4674794616699219	-2.36425830078125	0		-0.9905357055664062	0.1305196533203125	0		-0.5673614501953125	-2.416691650390625	0		1.704944580078125	-0.42249072265625	0		3.293701904296875	-0.09582992553710938	0		4.4620087890625	-0.22429380798339843	0		6.04728662109375	0.49445486450195314	0		0.011691697120666504	5.9629853515625	0		
-0.03098695755004883	9.728699922561645E-4	0		0.4398135070800781	-2.36188525390625	0		-0.9953154296875	0.12655369567871094	0		-0.5703670043945313	-2.438679443359375	0		1.7082825927734375	-0.41854071044921876	0		3.289065185546875	-0.089750244140625	0		4.46228857421875	-0.22427116394042967	0		6.0383203125	0.47762307739257814	0		0.01387590217590332	5.960931640625	0		
0.004253107070922852	-5.252209901809692E-4	0		0.48788397216796875	-2.37755908203125	0		-0.9859478149414063	0.13440859985351564	0		-0.5703471069335937	-2.457690185546875	0		1.7224312744140624	-0.426721923828125	0		3.3032099609375	-0.09791240692138672	0		4.4506201171875	-0.21905496215820314	0		6.05679541015625	0.4934354553222656	0		0.03118649101257324	5.96968603515625	0		
-0.018455667495727537	0.0038125410079956055	0		0.464248779296875	-2.370201171875	0		-0.985716796875	0.13441065979003905	0		-0.5792074584960938	-2.466555419921875	0		1.7267254638671874	-0.4227406921386719	0		3.314822265625	-0.07101091766357422	0		4.47096630859375	-0.2112628631591797	0		6.05703564453125	0.49453033447265626	0		0.0293687801361084	5.9717294921875	0		
0.026744604110717773	0.0032172091007232665	0		0.5044272155761719	-2.37471923828125	0		-1.0046102905273437	0.12770022583007812	0		-0.5962184448242187	-2.484286865234375	0		1.7167689208984376	-0.434538330078125	0		3.277708984375	-0.0934060287475586	0		4.44920458984375	-0.20885444641113282	0		6.048234375	0.49477911376953126	0		0.014335701942443848	5.9609775390625	0		
-0.022132516860961914	-3.778500109910965E-5	0		0.48352713012695314	-2.38235888671875	0		-1.0084937133789063	0.12379897308349609	0		-0.5403346557617188	-2.508021240234375	0		1.7169495849609375	-0.4344549865722656	0		3.302980224609375	-0.08665023803710938	0		4.46725390625	-0.21798130798339843	0		6.04328955078125	0.48699862670898436	0		0.01244820785522461	5.9630634765625	0		
9.642149806022644E-4	-0.003281893014907837	0		0.48167779541015626	-2.3842451171875	0		-1.0034251708984374	0.11879154205322266	0		-0.6242300415039063	-2.512775146484375	0		1.7179573974609375	-0.4443630676269531	0		3.30312255859375	-0.08652033233642578	0		4.4584970703125	-0.21070777893066406	0		6.0315361328125	0.4953388366699219	0		0.012495396614074707	5.9631416015625	0		
-0.02681489372253418	0.005206600189208984	0		0.4589227600097656	-2.37681884765625	0		-1.0033208618164062	0.11887301635742188	0		-0.5493980712890625	-2.535734130859375	0		1.723986328125	-0.45032086181640624	0		3.305341796875	-0.07839791107177735	0		4.47160546875	-0.21071969604492188	0		6.04863232421875	0.49529644775390624	0		0.02962930488586426	5.97200048828125	0		
0.03218139266967773	-5.007569789886475E-4	0		0.48396151733398435	-2.382043212890625	0		-1.0032508544921874	0.11897319793701172	0		-0.5943638305664063	-2.540997314453125	0		1.728995361328125	-0.4552452087402344	0		3.29922021484375	-0.09214173126220702	0		4.4716806640625	-0.21052951049804688	0		6.0486962890625	0.4955125732421875	0		0.012479047775268554	5.9633564453125	0		
-0.021774019241333008	3.876970112323761E-4	0		0.4820123291015625	-2.38387255859375	0		-1.01636572265625	0.10827368927001953	0		-0.5704943237304687	-2.5562060546875	0		1.7207359619140625	-0.4769684143066406	0		3.335438720703125	-0.07945636749267578	0		4.4717236328125	-0.21032135009765626	0		6.0567265625	0.49563507080078123	0		0.014392141342163087	5.96146337890625	0		
-0.0027535839080810548	0.0012736259698867798	0		0.47799005126953126	-2.388657470703125	0		-1.0214143676757812	0.10447840881347656	0		-0.5805968017578125	-2.566923583984375	0		1.7176966552734374	-0.4807471923828125	0		3.282314208984375	-0.08851163482666016	0		4.4717353515625	-0.21009770202636718	0		6.05672705078125	0.4958843994140625	0		0.012331893920898437	5.96364208984375	0		
0.0011699880361557007	-0.0026154580116271972	0		0.484853515625	-2.399580078125	0		-1.0155065307617188	0.0995455551147461	0		-0.5808412475585938	-2.5857646484375	0		1.721405029296875	-0.5006076354980469	0		3.28830859375	-0.08737733459472656	0		4.48959130859375	-0.21911074829101562	0		6.0435888671875	0.4883276977539063	0		-0.019890560150146484	5.9562548828125	0		
0.001124290943145752	-0.002435476064682007	0		0.4599159851074219	-2.394045654296875	0		-1.0046799926757812	0.09055809020996093	0		-0.6218717041015625	-2.587023193359375	0		1.732198974609375	-0.5125534057617187	0		3.311136962890625	-0.09646656036376954	0		4.47655029296875	-0.21868214416503906	0		6.06153369140625	0.4883487854003906	0		0.016025760650634765	5.95993359375	0		
0.009153143882751465	0.004645277976989746	0		0.49092172241210935	-2.39127734375	0		-0.92788134765625	0.08066744995117188	0		-0.5890022583007812	-2.59429736328125	0		1.7321387939453126	-0.5123358154296875	0		3.31429248046875	-0.08026927947998047	0		4.50477490234375	-0.19781568908691408	0		6.061458984375	0.488629150390625	0		0.029051088333129884	5.97294482421875	0		
0.005011133193969727	9.052990078926087E-4	0		0.48475759887695313	-2.398982421875	0		-1.0230433959960938	0.07617734527587891	0		-0.59919091796875	-2.6039619140625	0		1.71783837890625	-0.5279119873046875	0		3.2739609375	-0.09746257019042968	0		4.49651123046875	-0.21043696594238281	0		6.047255859375	0.4811122131347656	0		0.013730265617370606	5.9623583984375	0		
0.004906463146209717	0.001119449019432068	0		0.5085852966308594	-2.406093994140625	0		-0.9553773803710938	0.05943681716918945	0		-0.5693888549804688	-2.613170654296875	0		1.7196019287109374	-0.5377019653320313	0		3.315770263671875	-0.10378689575195313	0		4.4964091796875	-0.21016351318359375	0		6.05201953125	0.47233770751953125	0		-0.0016180299520492554	5.95078173828125	0		
-0.026254207611083984	-0.0012284870147705078	0		0.48738446044921874	-2.41357373046875	0		-1.024673583984375	0.04760414505004883	0		-0.6016414184570312	-2.624510986328125	0		1.7103211669921874	-0.5493323364257813	0		3.300651123046875	-0.10331537628173829	0		4.49628955078125	-0.20988499450683593	0		6.0518916015625	0.4726356201171875	0		0.014336404800415039	5.96178125	0		
6.048460006713867E-4	-0.0013736929893493652	0		0.4961628112792969	-2.421462890625	0		-0.9579296875	0.038894474029541014	0		-0.5918607177734375	-2.632427001953125	0		1.715105712890625	-0.5551521606445312	0		3.31270654296875	-0.08921534729003906	0		4.5043330078125	-0.19671551513671875	0		6.04274853515625	0.47305984497070314	0		0.014128137588500976	5.96201025390625	0		
-0.01844774627685547	0.0061215457916259765	0		0.4891907958984375	-2.410128662109375	0		-0.9512617797851562	0.026021656036376954	0		-0.5998441162109375	-2.622090576171875	0		1.7119056396484376	-0.5588583984375	0		3.29628125	-0.10872285461425782	0		4.5161826171875	-0.1965990753173828	0		6.05159130859375	0.47323455810546877	0		0.013911840438842773	5.96224365234375	0		
0.027278907775878908	-0.002277889966964722	0		0.5119577026367188	-2.417205322265625	0		-0.9686260375976562	0.011484012603759766	0		-0.5921151123046875	-2.631970703125	0		1.751541748046875	-0.5741569213867187	0		3.332300048828125	-0.095952880859375	0		4.50402734375	-0.19615240478515625	0		6.04655322265625	0.48259906005859377	0		0.014679771423339844	5.96146533203125	0		
0.004176887035369873	0.002275099039077759	0		0.49171148681640625	-2.424688232421875	0		-0.9619657592773437	-0.0013846089839935302	0		-0.5552957763671875	-2.6352509765625	0		1.7502080078125	-0.5868905029296875	0		3.309005615234375	-0.10536872863769531	0		4.51968896484375	-0.20909591674804687	0		6.04638916015625	0.48288916015625	0		-0.0026837570667266847	5.95093701171875	0		
-0.0030752429962158205	-0.004394750118255616	0		0.5055731201171875	-2.424644775390625	0		-0.9644115600585937	-0.022129747390747072	0		-0.60227490234375	-2.623375	0		1.7458084716796876	-0.6045869750976562	0		3.30478173828125	-0.11005409240722656	0		4.53768408203125	-0.19807685852050783	0		6.04599462890625	0.46617132568359376	0		-9.146810173988342E-4	5.949142578125	0		
